<?xml version="1.0" encoding="utf-8"?>
<!-- Generator: Adobe Illustrator 19.2.1, SVG Export Plug-In . SVG Version: 6.00 Build 0)  -->
<svg version="1.1" id="Layer_1" xmlns="http://www.w3.org/2000/svg" xmlns:xlink="http://www.w3.org/1999/xlink" x="0px" y="0px"
	 viewBox="0 0 21 17" style="enable-background:new 0 0 21 17;" xml:space="preserve">
<style type="text/css">
	.st0{fill:#FFFFFF;}
</style>
<g>
	<path class="st0" d="M20.9,15.9c-0.2-0.2-0.6-0.2-0.8-0.1c-0.8,0.2-1.6-0.2-1.9-0.9c-0.3-0.5-0.4-1.1-0.2-1.6
		c0.3-0.8,0.7-1.6,1.3-2.3l0.4-0.6c1.3-1.9,1.6-3.5,0.8-4.9c-0.8-1.4-3.1-1.3-4.7-0.6C15.9,5,16,5.3,16.1,5.5
		c0.6-0.2,1.2-0.4,1.8-0.4c0.7-0.1,1.4,0.1,1.9,0.7c0.7,1.2,0.3,2.6-1,4.2l-0.3,0.3c-1.5,1.9-1.9,3.5-1.1,4.9c0.3,0.6,0.9,1,1.5,1.2
		c0.6,0.3,1.2,0.2,1.8-0.1c0,0,0.1,0,0.1,0C21,16.3,21,16.1,20.9,15.9z"/>
	<path class="st0" d="M15.1,5.1c0.2-0.1,0.4-0.2,0.6-0.3C14.4,2,11.6,0,8.3,0C3.6,0.1-0.1,3.9,0,8.5c-0.1,4.6,3.6,8.4,8.3,8.5
		c4.6-0.1,8.3-3.9,8.3-8.5c0-1-0.2-2-0.5-3c-0.2,0.1-0.5,0.2-0.7,0.3L15.1,5.1z M4.5,10.3c-1,0-1.8-0.8-1.8-1.8c0-1,0.8-1.8,1.8-1.8
		v0c1,0,1.8,0.8,1.8,1.8C6.3,9.5,5.5,10.3,4.5,10.3z M8.4,14.2c-1,0-1.8-0.7-1.8-1.7c0,0,0,0,0-0.1c0-1,0.8-1.8,1.7-1.8c0,0,0,0,0,0
		v0c1,0,1.8,0.7,1.8,1.7S9.3,14.2,8.4,14.2z M7.6,8.5c0-0.4,0.3-0.7,0.7-0.7C8.7,7.8,9,8.1,9,8.5S8.7,9.2,8.3,9.3S7.6,9,7.6,8.5
		C7.6,8.6,7.6,8.6,7.6,8.5z M8.4,6.4c-1,0-1.8-0.7-1.8-1.7c0,0,0,0,0,0c0-1,0.8-1.8,1.7-1.8c0,0,0,0,0,0c1,0,1.8,0.7,1.8,1.7
		C10.1,5.6,9.3,6.4,8.4,6.4z M12.2,10.3c-1,0-1.8-0.7-1.8-1.7c0,0,0,0,0,0c0-1,0.8-1.8,1.7-1.8c0,0,0,0,0,0v0c1,0,1.8,0.7,1.8,1.7
		C13.9,9.5,13.1,10.3,12.2,10.3z"/>
</g>
</svg>
