<?xml version="1.0" encoding="utf-8"?>
<!-- Generator: Adobe Illustrator 19.2.1, SVG Export Plug-In . SVG Version: 6.00 Build 0)  -->
<svg version="1.1" id="Layer_1" xmlns="http://www.w3.org/2000/svg" xmlns:xlink="http://www.w3.org/1999/xlink" x="0px" y="0px"
	 viewBox="0 0 16 10" style="enable-background:new 0 0 16 10;" xml:space="preserve">
<style type="text/css">
	.st0{fill:#FFFFFF;}
</style>
<g>
	<path class="st0" d="M8,3.9C7.3,3.9,6.8,4.4,6.8,5c0,0,0,0,0,0c0,0.6,0.6,1.1,1.2,1.1c0.6,0,1.2-0.5,1.2-1.1C9.2,4.4,8.6,3.9,8,3.9
		z"/>
	<path class="st0" d="M7.9,0C3,0,0,5,0,5s3,5,7.9,5c4.6,0,8.1-5,8.1-5S12.5,0,7.9,0z M8,7.2c-1.3,0-2.4-1-2.4-2.2
		C5.6,3.7,6.7,2.7,8,2.8c1.3,0,2.4,1,2.4,2.2C10.3,6.3,9.3,7.3,8,7.2z"/>
</g>
</svg>
