<?xml version="1.0" encoding="utf-8"?>
<!-- Generated by IcoMoon.io -->
<!DOCTYPE svg PUBLIC "-//W3C//DTD SVG 1.1//EN" "http://www.w3.org/Graphics/SVG/1.1/DTD/svg11.dtd">
<svg version="1.1" xmlns="http://www.w3.org/2000/svg" xmlns:xlink="http://www.w3.org/1999/xlink" width="36" height="32" viewBox="0 0 36 32">
<path fill="#012644" d="M0 0h1.357l0.023 30.65 34.385 0.066v1.284h-35.765v-32zM5.502 0h4.126c0.006-0 0.014-0 0.021-0 0.741 0 1.342 0.594 1.355 1.332l0 26.668h-6.878v-26.667c0.013-0.739 0.615-1.333 1.355-1.333 0.007 0 0.015 0 0.022 0zM13.754 8h4.128c0.006-0 0.014-0 0.021-0 0.741 0 1.343 0.594 1.355 1.332l0 18.668h-6.878v-18.667c0.013-0.739 0.614-1.333 1.355-1.333 0.007 0 0.013 0 0.020 0zM22.008 16h4.126c0.006-0 0.014-0 0.021-0 0.741 0 1.343 0.594 1.355 1.332l0 10.668h-6.878v-10.667c0.013-0.739 0.614-1.333 1.355-1.333 0.007 0 0.015 0 0.022 0zM30.263 24h4.126c0.006-0 0.014-0 0.021-0 0.741 0 1.343 0.594 1.355 1.332l0 2.668h-6.878v-2.667c0.013-0.739 0.614-1.333 1.355-1.333 0.007 0 0.015 0 0.022 0z"></path>
</svg>
