<svg xmlns="http://www.w3.org/2000/svg" xmlns:xlink="http://www.w3.org/1999/xlink" width="18" height="17" viewBox="0 0 18 17">
  <defs>
    <style>
      .cls-1 {
        fill: #217cb8;
        fill-rule: evenodd;
        filter: url(#filter);
      }
    </style>
    <filter id="filter" x="0" y="0" width="18" height="17" filterUnits="userSpaceOnUse">
      <feFlood result="flood" flood-color="#217cb8"/>
      <feComposite result="composite" operator="in" in2="SourceGraphic"/>
      <feBlend result="blend" in2="SourceGraphic"/>
    </filter>
  </defs>
  <path id="tools" class="cls-1" d="M17.644,2.677a4.229,4.229,0,0,1-.971,4.73,4.6,4.6,0,0,1-5.375.7L10.061,9.408l0.883,0.856,0.528-.51a0.708,0.708,0,0,1,.977,0l4.282,4.178a0.651,0.651,0,0,1,0,.944l-1.955,1.888a0.708,0.708,0,0,1-.977,0L9.517,12.587a0.652,0.652,0,0,1,0-.944L10,11.177l-0.842-.815L3.235,16.611a1.417,1.417,0,0,1-1.955,0l-0.489-.472a1.3,1.3,0,0,1,0-1.888L7.537,8.794,3.057,4.454H1.642L0.005,1.91,1.324,0.635,4.017,2.227,4.035,3.565l4.532,4.4L9.886,6.893a4.218,4.218,0,0,1,.434-5.622A4.609,4.609,0,0,1,15.2.322l-2.9,2.766,2.443,2.36ZM2.414,14.916a0.708,0.708,0,0,0-.977,0,0.652,0.652,0,0,0,0,.944,0.708,0.708,0,0,0,.977,0A0.652,0.652,0,0,0,2.414,14.916Z"/>
</svg>
