<?xml version="1.0" encoding="utf-8"?>
<!-- Generated by IcoMoon.io -->
<!DOCTYPE svg PUBLIC "-//W3C//DTD SVG 1.1//EN" "http://www.w3.org/Graphics/SVG/1.1/DTD/svg11.dtd">
<svg version="1.1" xmlns="http://www.w3.org/2000/svg" xmlns:xlink="http://www.w3.org/1999/xlink" width="40" height="32" viewBox="0 0 40 32">
<path fill="#012644" d="M39.341 29.929c-0.376-0.376-1.129-0.376-1.506-0.188-1.506 0.376-3.012-0.376-3.576-1.694-0.565-0.941-0.753-2.071-0.376-3.012 0.565-1.506 1.318-3.012 2.447-4.329l0.753-1.129c2.447-3.576 3.012-6.588 1.506-9.224s-5.835-2.447-8.847-1.129c0.188 0.188 0.376 0.753 0.565 1.129 1.129-0.376 2.259-0.753 3.388-0.753 1.318-0.188 2.635 0.188 3.576 1.318 1.318 2.259 0.565 4.894-1.882 7.906l-0.565 0.565c-2.824 3.576-3.576 6.588-2.071 9.224 0.565 1.129 1.694 1.882 2.824 2.259 1.129 0.565 2.259 0.376 3.388-0.188 0 0 0.188 0 0.188 0 0.376 0 0.376-0.376 0.188-0.753z"></path>
<path fill="#012644" d="M28.424 9.6c0.376-0.188 0.753-0.376 1.129-0.565-2.447-5.271-7.718-9.035-13.929-9.035-8.847 0.188-15.812 7.341-15.624 16-0.188 8.659 6.776 15.812 15.624 16 8.659-0.188 15.624-7.341 15.624-16 0-1.882-0.376-3.765-0.941-5.647-0.376 0.188-0.941 0.376-1.318 0.565l-0.565-1.318zM8.471 19.388c-1.882 0-3.388-1.506-3.388-3.388s1.506-3.388 3.388-3.388v0c1.882 0 3.388 1.506 3.388 3.388s-1.506 3.388-3.388 3.388zM15.812 26.729c-1.882 0-3.388-1.318-3.388-3.2 0 0 0 0 0-0.188 0-1.882 1.506-3.388 3.2-3.388 0 0 0 0 0 0v0c1.882 0 3.388 1.318 3.388 3.2s-1.506 3.576-3.2 3.576zM14.306 16c0-0.753 0.565-1.318 1.318-1.318s1.318 0.565 1.318 1.318-0.565 1.318-1.318 1.506-1.318-0.565-1.318-1.506c0 0.188 0 0.188 0 0zM15.812 12.047c-1.882 0-3.388-1.318-3.388-3.2 0 0 0 0 0 0 0-1.882 1.506-3.388 3.2-3.388 0 0 0 0 0 0 1.882 0 3.388 1.318 3.388 3.2s-1.506 3.388-3.2 3.388zM22.965 19.388c-1.882 0-3.388-1.318-3.388-3.2 0 0 0 0 0 0 0-1.882 1.506-3.388 3.2-3.388 0 0 0 0 0 0v0c1.882 0 3.388 1.318 3.388 3.2s-1.506 3.388-3.2 3.388z"></path>
</svg>
