<svg xmlns="http://www.w3.org/2000/svg" xmlns:xlink="http://www.w3.org/1999/xlink" width="21" height="21" viewBox="0 0 21 21">
  <defs>
    <style>
      .cls-1 {
        fill: #fff;
        fill-rule: evenodd;
        opacity: 0.5;
        filter: url(#filter);
      }
    </style>
    <filter id="filter" x="0" y="0" width="21" height="21" filterUnits="userSpaceOnUse">
      <feFlood result="flood" flood-color="#f6f6f6"/>
      <feComposite result="composite" operator="in" in2="SourceGraphic"/>
      <feBlend result="blend" in2="SourceGraphic"/>
    </filter>
  </defs>
  <path id="socker_ball" data-name="socker ball" class="cls-1" d="M20.049,6.143l-0.017-.034,0.022,0Zm-2.644,9-3.484.145-1.821-3.2,1.885-3.4,3.648,0.12,1.557,3.177Zm-9.364-3.1L6.213,8.74,8.124,5.554l3.9-.06,1.916,3.172-1.882,3.391ZM8.122,5.5L6.681,3.02,8.6,0.688l3.341-.107,1.781,2.2-1.7,2.655ZM6.3,15.164l-3.088-.3L1.724,11.892l1.3-3.011,3.14-.12,1.829,3.305Zm10.779-12,0.3-.587a10.52,10.52,0,0,1,2.659,3.532l-1.107-.176Zm-3.3-.4L11.99,0.56l0.285-.346A10.548,10.548,0,0,0,8.258.308c0.006,0,.238.3,0.286,0.358L6.628,3l-2.856.48L3.518,2.7l-0.044.013a10.478,10.478,0,0,1,13.857-.175l-0.3.6ZM2.017,6.194l-1.2.283L0.829,6.529l1.18-.278,0.97,2.589-1.3,3.022A8.484,8.484,0,0,0,.139,11.8a10.287,10.287,0,0,0,2.31,5.374l0.769-2.254,3.083,0.3,1.947,2.95L6.9,20.355A10.467,10.467,0,0,1,3.467,2.721L3.726,3.513Zm9.871,12.092,1.6,2.242,0.044-.032L11.944,18.27l1.979-2.931,3.482-.145c0.07,0.157.963,2.162,0.957,2.162a10.068,10.068,0,0,0,2.474-5.4l-1.6.007L17.679,8.78l1.257-2.79,1.11,0.177,0-.023A10.483,10.483,0,0,1,6.956,20.374L8.3,18.193ZM6.941,20.4L6.894,20.37,6.9,20.355l0.052,0.019ZM3.466,2.717l0.008,0-0.007.006v0Zm13.876-.2,0.049,0.025-0.017.033-0.042-.038Z"/>
</svg>
