<?xml version="1.0" encoding="utf-8"?>
<!-- Generator: Adobe Illustrator 19.2.1, SVG Export Plug-In . SVG Version: 6.00 Build 0)  -->
<svg version="1.1" id="Layer_1" xmlns="http://www.w3.org/2000/svg" xmlns:xlink="http://www.w3.org/1999/xlink" x="0px" y="0px"
	 viewBox="0 0 22 17" style="enable-background:new 0 0 22 17;" xml:space="preserve">
<style type="text/css">
	.st0{fill:#FFFFFF;}
</style>
<path class="st0" d="M20.4,3.2h-1.5V0.9l-3.1,0l0,2.3H6.3l0.1-2.3l-3.1,0v2.3l-1.6,0c0,0,0,0,0,0c-0.9,0-1.5,0.7-1.6,1.5v10.7
	c0,0,0,0,0,0c0,0.9,0.7,1.5,1.6,1.5h18.7c0,0,0,0,0,0c0.9,0,1.5-0.7,1.6-1.5V4.7c0,0,0,0,0,0C21.9,3.9,21.2,3.2,20.4,3.2z M16.5,1.7
	H18v3h-1.6V1.7z M6.4,6.9C7.5,7,8.2,8,8.1,9c0.1,1.1-0.6,2-1.7,2.2C5.3,11.1,4.6,10.1,4.7,9C4.6,8,5.3,7,6.4,6.9z M4.1,1.7h1.6v3
	H4.1V1.7z M3,13.8c0-0.6,0.3-1.2,0.6-1.7c0.5-0.2,1.1-0.4,1.6-0.5c0.3,0.4,0.7,0.6,1.1,0.8c0.4-0.2,0.8-0.5,1.1-0.8
	c0.6,0.1,1.1,0.2,1.6,0.5c0.4,0.5,0.6,1.1,0.6,1.7H3z M18.8,13.1h-7v-0.8h7V13.1z M18.8,11.6h-7v-0.8v0h7V11.6z M18.8,10h-7V9.3h7
	V10z M18.8,8.5h-7V7.8h7V8.5z"/>
</svg>
