<?xml version="1.0" encoding="utf-8"?>
<!-- Generated by IcoMoon.io -->
<!DOCTYPE svg PUBLIC "-//W3C//DTD SVG 1.1//EN" "http://www.w3.org/Graphics/SVG/1.1/DTD/svg11.dtd">
<svg version="1.1" xmlns="http://www.w3.org/2000/svg" xmlns:xlink="http://www.w3.org/1999/xlink" width="40" height="32" viewBox="0 0 40 32">
<path fill="#012644" d="M35.576 5.647h-8.282c0 0 0 0.188 0 0.188h-16.376c0 0 0-0.188 0-0.188h-6.965c0 0 0 0 0 0-1.318 0-2.447 1.129-2.447 2.635v20.329c0 0 0 0 0 0 0 1.318 1.129 2.447 2.447 2.447h31.435c0 0 0 0 0 0 1.318 0 2.447-1.129 2.447-2.447v-20.329c0 0 0 0 0 0 0.188-1.506-0.941-2.635-2.259-2.635zM18.824 25.412c-3.953 0-7.153-3.388-7.153-7.341 0-4.141 3.388-7.341 7.529-7.341s7.341 3.388 7.153 7.529c-0.188 3.953-3.576 7.341-7.529 7.153z"></path>
<path fill="#012644" d="M27.106 3.953c0 0 0 0 0 0 0-1.694-1.506-3.012-3.2-3.012h-9.976c0 0 0 0 0 0-1.694 0-3.2 1.318-3.2 3.012 0 0.565 0 1.129 0 1.694h16.188c0.188-0.565 0.188-1.129 0.188-1.694z"></path>
</svg>
