<?xml version="1.0" encoding="utf-8"?>
<!-- Generator: Adobe Illustrator 19.2.1, SVG Export Plug-In . SVG Version: 6.00 Build 0)  -->
<svg version="1.1" id="Layer_1" xmlns="http://www.w3.org/2000/svg" xmlns:xlink="http://www.w3.org/1999/xlink" x="0px" y="0px"
	 viewBox="0 0 20 16" style="enable-background:new 0 0 20 16;" xml:space="preserve">
<style type="text/css">
	.st0{fill:#FFFFFF;}
</style>
<g>
	<path class="st0" d="M7.6,6.4L7.6,6.4c-1.7,0-3.1,1.3-3.1,3c0,1.7,1.4,3,3.1,3c1.7,0,3.1-1.3,3.1-3C10.7,7.7,9.3,6.4,7.6,6.4z"/>
	<path class="st0" d="M18.6,2L8.3,2V0L2.8,0v2H1.4C0.6,2,0,2.6,0,3.3v11.3C0,15.4,0.6,16,1.4,16h17.2c0,0,0,0,0,0
		c0.7,0,1.4-0.6,1.4-1.3V3.3C20,2.6,19.4,2,18.6,2z M4.1,1.3h2.8v2H4.1V1.3z M7.6,14c-2.6,0-4.8-2-4.8-4.7c0,0,0,0,0,0
		c0-2.6,2.2-4.7,4.8-4.7l0,0c2.6,0,4.8,2,4.8,4.7C12.4,11.9,10.2,14,7.6,14z M16.8,6.3c-0.7,0-1.3-0.6-1.3-1.3
		c0-0.7,0.6-1.3,1.4-1.3c0.7,0,1.3,0.6,1.3,1.4S17.5,6.4,16.8,6.3z"/>
</g>
</svg>
